<svg width="48" height="48" viewBox="0 0 48 48" fill="none" xmlns="http://www.w3.org/2000/svg">
<g id="Catering Hall 1">
<g id="Group">
<path id="Vector" d="M43.2 41.82C43.2 42.48 43.2 43.14 43.2 43.8C44.4 43.8 45.6 43.8 46.8 43.8C46.8 44.76 46.8 45.72 46.8 46.74C31.62 46.74 16.44 46.74 1.2 46.74C1.2 45.78 1.2 44.82 1.2 43.86C2.4 43.86 3.6 43.86 4.8 43.86C4.8 43.2 4.8 42.54 4.8 41.88C4.32 41.82 3.84 41.76 3.36 41.7C2.76 41.58 2.58 41.34 2.64 40.74C2.94 37.92 3.24 35.04 3.48 32.22C3.66 30.36 3.84 28.5 4.02 26.64C4.02 26.34 4.14 26.22 4.44 26.1C6.78 24.96 8.52 23.28 9.18 20.64C9.3 20.1 9.12 19.68 8.64 19.62C8.22 19.5 7.86 19.8 7.74 20.34C7.26 22.38 5.94 23.7 4.08 24.72C4.08 22.74 4.08 20.88 4.08 18.9C3.78 18.9 3.6 18.9 3.36 18.9C2.88 18.9 2.64 18.6 2.58 18.12C2.58 16.98 2.58 15.84 2.58 14.7C2.58 14.52 2.76 14.34 2.94 14.22C6.54 12 10.14 9.78 13.74 7.5C17.04 5.46 20.28 3.42 23.58 1.38C23.88 1.2 24.06 1.2 24.36 1.38C31.26 5.64 38.1 9.89999 45 14.16C45.3 14.34 45.42 14.52 45.42 14.82C45.42 15.78 45.42 16.8 45.42 17.76C45.42 18.6 45.18 18.78 44.4 18.78C44.28 18.78 44.16 18.78 43.98 18.78C43.98 20.7 43.98 22.62 43.98 24.6C42.24 23.64 40.92 22.38 40.38 20.52C40.32 20.4 40.32 20.22 40.26 20.1C40.14 19.68 39.78 19.44 39.36 19.56C38.94 19.68 38.7 20.04 38.82 20.46C39.06 21.6 39.54 22.62 40.32 23.52C41.22 24.6 42.36 25.5 43.68 26.04C43.92 26.16 43.98 26.28 44.04 26.52C44.28 28.86 44.52 31.14 44.76 33.48C45 35.76 45.24 38.1 45.48 40.38C45.6 41.28 45.42 41.52 44.52 41.64C43.98 41.76 43.62 41.82 43.2 41.82ZM7.8 43.8C18.66 43.8 29.4 43.8 40.2 43.8C40.2 43.2 40.14 42.66 40.2 42.12C40.26 41.34 40.14 40.68 39.36 40.32C39.3 40.26 39.24 40.2 39.12 40.14C38.76 39.9 38.64 39.54 38.7 39.12C38.7 38.82 38.7 38.52 38.7 38.22C38.46 38.28 38.28 38.28 38.1 38.34C37.2 38.46 36.48 38.16 35.94 37.5C35.82 37.38 35.76 37.08 35.82 36.9C36.48 33.12 37.14 29.34 37.8 25.56C37.86 25.26 37.8 25.14 37.56 24.96C35.46 23.52 34.02 21.6 33.18 19.2C33.12 19.08 33.06 18.9 33.06 18.84C32.64 18.72 32.34 18.9 32.04 19.14C31.68 19.44 31.2 19.8 30.78 19.92C29.16 20.46 27.54 20.4 25.92 20.04C25.74 20.94 25.2 21.66 24.12 21.72C22.92 21.78 22.32 21.06 22.08 19.98C21.78 20.1 21.48 20.22 21.18 20.22C20.4 20.28 19.56 20.22 18.78 20.22C17.7 20.22 16.74 19.8 15.96 19.08C15.66 18.78 15.36 18.66 15 18.78C15 18.84 14.94 18.84 14.94 18.9C14.1 21.48 12.6 23.52 10.38 25.02C10.26 25.08 10.2 25.32 10.26 25.44C10.92 29.1 11.52 32.82 12.24 36.48C12.36 37.2 12.12 37.62 11.64 37.98C11.16 38.34 10.62 38.46 10.02 38.34C9.84 38.28 9.6 38.28 9.36 38.22C9.36 38.4 9.36 38.52 9.36 38.64C9.54 39.54 9.18 40.14 8.46 40.56C8.34 40.62 8.22 40.68 8.1 40.8C7.98 40.92 7.92 41.04 7.92 41.16C7.8 42.06 7.8 42.9 7.8 43.8ZM12.96 15.9C9.96 15.9 7.08 15.9 4.14 15.9C4.14 16.38 4.14 16.86 4.14 17.34C7.68 17.34 11.16 17.34 14.52 17.34C14.46 16.38 14.46 15.48 14.4 14.52C14.4 13.92 14.7 13.68 15.24 13.68C15.78 13.68 16.26 13.68 16.74 13.68C16.68 12.72 16.68 11.76 16.62 10.86C16.62 10.26 16.92 10.02 17.46 10.02C18.06 10.02 18.66 10.02 19.32 10.02C20.76 9.96 21.9 10.44 22.92 11.52C22.98 11.64 23.22 11.64 23.4 11.64C23.82 11.64 24.24 11.58 24.6 11.64C24.9 11.7 25.02 11.7 25.2 11.46C25.86 10.74 26.7 10.2 27.72 10.14C28.62 10.08 29.58 10.08 30.48 10.08C31.14 10.08 31.38 10.32 31.38 10.98C31.38 11.88 31.32 12.78 31.26 13.74C31.68 13.74 32.16 13.74 32.64 13.74C33.3 13.74 33.54 13.98 33.54 14.64C33.54 15.54 33.48 16.44 33.42 17.34C36.84 17.34 40.32 17.34 43.8 17.34C43.8 16.86 43.8 16.38 43.8 15.9C40.86 15.9 37.92 15.9 34.98 15.9C34.98 15.54 34.98 15.18 34.98 14.82C34.98 13.26 34.38 12.48 32.76 12.18C32.76 11.7 32.76 11.22 32.76 10.74C32.76 9.54 31.8 8.58 30.6 8.58C29.82 8.58 28.98 8.58 28.2 8.58C26.88 8.64 25.74 9 24.72 9.84C24.3 10.14 23.58 10.14 23.16 9.84C22.5 9.3 21.72 8.82 20.88 8.76C19.74 8.64 18.54 8.58 17.4 8.58C16.08 8.58 15.12 9.54 15.12 10.86C15.12 11.34 15.12 11.76 15.12 12.24C13.62 12.48 12.9 13.26 12.9 14.76C12.96 15.06 12.96 15.42 12.96 15.9ZM7.14 27.12C6.72 27.18 6.3 27.36 5.88 27.36C5.4 27.36 5.34 27.6 5.28 27.96C4.98 31.5 4.62 35.04 4.26 38.58C4.26 39.12 4.26 39.6 4.2 40.14C5.52 40.26 6.66 39.9 7.62 39.06C7.74 39 7.8 38.76 7.74 38.64C7.62 35.76 7.44 32.82 7.26 29.94C7.26 28.98 7.2 28.08 7.14 27.12ZM43.8 40.14C43.8 39.9 43.8 39.66 43.74 39.42C43.5 36.96 43.26 34.5 43.02 31.98C42.9 30.6 42.78 29.22 42.6 27.84C42.6 27.66 42.48 27.42 42.36 27.42C41.88 27.3 41.34 27.24 40.86 27.12C40.86 27.18 40.86 27.24 40.86 27.3C40.68 31.08 40.44 34.92 40.26 38.7C40.26 38.82 40.26 39 40.38 39.06C41.34 39.9 42.48 40.26 43.8 40.14ZM20.16 16.62C20.04 16.56 20.04 16.5 19.98 16.5C19.2 16.26 18.54 15.9 18 15.36C17.94 15.3 17.76 15.24 17.7 15.18C17.16 15.18 16.56 15.18 16.02 15.18C15.72 17.46 17.4 19.2 19.44 18.78C19.2 17.88 19.44 17.16 20.16 16.62ZM32.1 15.12C31.62 15.12 31.14 15.06 30.72 15.12C30.48 15.12 30.18 15.3 29.94 15.42C29.4 15.72 28.86 16.08 28.26 16.38C28.14 16.44 28.02 16.5 27.84 16.56C28.62 17.16 28.8 17.88 28.68 18.78C30.84 18.96 32.22 17.52 32.1 15.12ZM22.2 13.26C22.08 12.96 22.08 12.78 21.96 12.6C21 11.28 19.56 11.4 18.18 11.46C18.06 12.66 18.3 13.74 19.32 14.52C20.04 13.2 20.7 12.84 22.2 13.26ZM25.86 13.26C26.52 13.02 27.12 12.96 27.6 13.26C28.02 13.56 28.38 13.98 28.8 14.4C29.7 13.68 29.94 12.66 29.82 11.46C29.16 11.46 28.56 11.4 27.96 11.46C27.12 11.52 26.52 12 26.04 12.66C25.98 12.84 25.92 13.02 25.86 13.26ZM25.5 16.62C25.5 15.84 24.84 15.12 24.06 15.12C23.28 15.12 22.56 15.78 22.56 16.56C22.56 17.4 23.22 18.06 24 18.06C24.78 18.06 25.44 17.4 25.5 16.62Z" fill="#71717A"/>
<path id="Vector_2" d="M17.4 32.34C17.4 29.46 19.86 27.72 22.44 28.62C22.86 28.74 23.34 28.98 23.7 29.22C23.94 29.34 24.06 29.34 24.3 29.22C25.56 28.44 26.88 28.08 28.32 28.62C30.12 29.34 30.96 31.2 30.48 33.24C30.06 35.04 28.92 36.3 27.36 37.2C26.4 37.74 25.38 38.1 24.36 38.52C24.12 38.58 23.82 38.58 23.58 38.52C21.84 37.98 20.22 37.2 18.9 35.88C17.94 34.92 17.4 33.6 17.4 32.34Z" fill="#71717A"/>
</g>
</g>
</svg>
