<svg width="48" height="48" viewBox="0 0 48 48" fill="none" xmlns="http://www.w3.org/2000/svg">
<g id="instagram">
<path id="Vector" d="M37.7343 12.7782C37.7343 14.175 36.6093 15.2907 35.2218 15.2907C33.825 15.2907 32.7093 14.1657 32.7093 12.7782C32.7093 11.3907 33.8343 10.2657 35.2218 10.2657C36.6093 10.2657 37.7343 11.3907 37.7343 12.7782ZM44.8687 15.3282C44.7093 11.9625 43.9406 8.9813 41.4749 6.52505C39.0187 4.0688 36.0375 3.30005 32.6718 3.1313C29.2031 2.93442 18.8062 2.93442 15.3375 3.1313C11.9812 3.29067 8.99995 4.05942 6.53433 6.51567C4.0687 8.97192 3.30933 11.9532 3.14058 15.3188C2.9437 18.7875 2.9437 29.1844 3.14058 32.6532C3.29995 36.0188 4.0687 39 6.53433 41.4563C8.99995 43.9125 11.9718 44.6813 15.3375 44.85C18.8062 45.0469 29.2031 45.0469 32.6718 44.85C36.0375 44.6907 39.0187 43.9219 41.4749 41.4563C43.9312 39 44.7 36.0188 44.8687 32.6532C45.0656 29.1844 45.0656 18.7969 44.8687 15.3282Z" fill="#848799"/>
<path id="Ellipse 11 (Stroke)" fill-rule="evenodd" clip-rule="evenodd" d="M24 34.3999C28.6834 34.3999 32.48 30.6033 32.48 25.9199C32.48 21.2366 28.6834 17.4399 24 17.4399C19.3166 17.4399 15.52 21.2366 15.52 25.9199C15.52 30.6033 19.3166 34.3999 24 34.3999ZM24 38.3999C30.8925 38.3999 36.48 32.8125 36.48 25.9199C36.48 19.0274 30.8925 13.4399 24 13.4399C17.1075 13.4399 11.52 19.0274 11.52 25.9199C11.52 32.8125 17.1075 38.3999 24 38.3999Z" fill="#E9E9EB"/>
</g>
</svg>
