<svg width="48" height="48" viewBox="0 0 48 48" fill="none" xmlns="http://www.w3.org/2000/svg">
<g id="5d67a0861a93c6557afb82c3_social-linkedin24 1">
<path id="Vector" fill-rule="evenodd" clip-rule="evenodd" d="M8 6C6.89543 6 6 6.89543 6 8V40C6 41.1046 6.89543 42 8 42H40C41.1046 42 42 41.1046 42 40V8C42 6.89543 41.1046 6 40 6H8ZM12.7376 19.9998H17.4843V35.2709H12.7376V19.9998ZM15.1198 12.4087C16.6398 12.4087 17.8665 13.6442 17.8665 15.1642C17.8665 16.6842 16.6309 17.9198 15.1198 17.9198C13.5998 17.9198 12.3643 16.6842 12.3643 15.1642C12.3643 13.6354 13.5909 12.4087 15.1198 12.4087ZM20.4796 19.9998H25.0218V22.0887H25.084C25.7151 20.8887 27.2618 19.6265 29.5729 19.6265C34.3818 19.6265 35.2707 22.7909 35.2707 26.8976V35.2709H30.524V27.8487C30.524 26.0798 30.4974 23.7954 28.0618 23.7954C25.5907 23.7954 25.2174 25.7242 25.2174 27.7154V35.2709H20.4796V19.9998Z" fill="#848799"/>
</g>
</svg>
