<svg width="48" height="48" viewBox="0 0 48 48" fill="none" xmlns="http://www.w3.org/2000/svg">
<g id="Restaurants 1" clip-path="url(#clip0_97_1638)">
<g id="Group">
<path id="Vector" d="M46.8 33.78C46.2 34.8 45.54 35.76 44.64 36.48C43.14 37.68 41.46 38.22 39.54 38.22C32.64 38.22 25.68 38.22 18.78 38.22C15.24 38.22 11.76 38.28 8.22 38.22C5.22 38.16 2.94 36.72 1.44 34.08C0.960003 33.18 1.38 32.52 2.4 32.52C16.8 32.52 31.26 32.52 45.66 32.52C46.2 32.52 46.56 32.76 46.86 33.18C46.8 33.36 46.8 33.6 46.8 33.78Z" fill="#71717A"/>
<path id="Vector_2" d="M5.10001 30.6C5.58001 26.22 7.32001 22.5 10.32 19.32C13.32 16.2 17.04 14.34 21.3 13.68C20.94 12 21.3 10.86 22.38 10.14C23.34 9.47997 24.6 9.53997 25.56 10.2C26.64 10.98 27 12.06 26.58 13.68C31.8 14.52 36 16.98 39.18 21.18C41.52 24.24 42.6 27.78 42.84 30.6C30.3 30.6 17.76 30.6 5.10001 30.6ZM22.98 17.34H22.92C17.1 17.94 12.84 20.82 10.2 26.1C9.96001 26.52 9.78001 27 9.66001 27.48C9.48001 27.96 9.78001 28.44 10.26 28.62C10.74 28.8 11.22 28.56 11.46 28.08C11.52 27.96 11.58 27.78 11.64 27.66C13.2 23.76 15.96 21.12 19.92 19.86C20.94 19.5 22.02 19.44 23.04 19.26C23.7 19.14 24.06 18.78 24.06 18.24C23.94 17.7 23.52 17.34 22.98 17.34Z" fill="#71717A"/>
</g>
</g>
<defs>
<clipPath id="clip0_97_1638">
<rect width="48" height="48" fill="white"/>
</clipPath>
</defs>
</svg>
