<svg width="48" height="48" viewBox="0 0 48 48" fill="none" xmlns="http://www.w3.org/2000/svg">
<g id="5d6584dd7388927cee764aac_social-twitter24 1">
<path id="Vector" fill-rule="evenodd" clip-rule="evenodd" d="M38.8566 16.6861C38.8716 17.0198 38.8801 17.3555 38.8801 17.6934C38.8801 27.9886 31.0421 39.86 16.7135 39.86C12.3123 39.86 8.21897 38.5704 4.76941 36.3612C5.37891 36.4318 5.9991 36.4682 6.62785 36.4682C10.2785 36.4682 13.6382 35.2235 16.305 33.1341C12.8961 33.0721 10.0176 30.818 9.02736 27.7234C9.50213 27.8154 9.98973 27.8625 10.4923 27.8625C11.2023 27.8625 11.891 27.7684 12.5454 27.5909C8.98031 26.8744 6.29637 23.7264 6.29637 19.9518C6.29637 19.9176 6.29637 19.8855 6.29637 19.8534C7.34642 20.4372 8.54832 20.7858 9.82506 20.8265C7.73351 19.43 6.35839 17.0454 6.35839 14.3422C6.35839 12.9158 6.74334 11.577 7.41486 10.4264C11.2558 15.1399 16.998 18.2409 23.4715 18.566C23.3389 17.995 23.2705 17.4004 23.2705 16.7909C23.2705 12.4881 26.7585 9 31.0614 9C33.3026 9 35.3258 9.94526 36.7479 11.4594C38.523 11.1108 40.1889 10.4628 41.6945 9.56887C41.1128 11.3888 39.8788 12.9158 38.2685 13.8803C39.8446 13.6921 41.3459 13.2729 42.7446 12.6527C41.6988 14.216 40.3793 15.5869 38.8566 16.6861Z" fill="#848799"/>
</g>
</svg>
