<svg width="167" height="40" viewBox="0 0 167 40" fill="none" xmlns="http://www.w3.org/2000/svg">
<g id="vidiogift 1">
<g id="Group">
<path id="Vector" fill-rule="evenodd" clip-rule="evenodd" d="M116.857 22.8983C116.857 24.3389 116.583 25.7298 116.042 27.0659C115.484 28.4047 114.7 29.5868 113.68 30.6072C112.662 31.6302 111.485 32.413 110.149 32.9663C108.813 33.5143 107.425 33.7909 105.987 33.7909C104.55 33.7909 103.162 33.5143 101.829 32.9663C100.493 32.4157 99.3134 31.6302 98.2952 30.6072C97.2744 29.5868 96.4932 28.4047 95.9412 27.0659C95.3943 25.7298 95.1183 24.3389 95.1183 22.8983C95.1183 21.4578 95.3943 20.0669 95.9412 18.7282C96.4906 17.3894 97.2744 16.2099 98.2952 15.1895C99.3134 14.1665 100.493 13.3837 101.829 12.8304C102.011 12.7547 102.193 12.6869 102.376 12.6216C99.9644 12.0893 97.8447 11.3194 96.7016 10.3774C96.7016 10.3774 97.639 9.46661 98.0062 9.30742C98.8368 10.1347 100.811 11.1681 101.704 11.6065C102.3 11.8988 102.774 12.0815 102.891 12.1128C103.008 12.1441 102.769 12.0293 102.287 11.7292C101.808 11.429 101.087 10.9489 100.582 10.4165C100.076 9.88415 99.7847 9.29698 99.7535 8.63936C99.7248 7.97912 99.9566 7.24581 100.433 6.74216C100.91 6.2385 101.631 5.96449 102.415 6.20979C103.199 6.45249 104.05 7.2145 104.623 8.02087C105.258 8.91337 105.649 10.0981 105.967 11.1524C106.008 10.7584 106.313 9.87371 106.67 9.05429C107.026 8.23487 107.539 7.40239 108.086 6.66126C108.636 5.92012 109.219 5.27033 109.857 4.80581C110.495 4.3413 111.19 4.06207 111.927 4.06207C112.664 4.06207 113.443 4.3413 113.945 4.75362C114.448 5.16594 114.674 5.71396 114.763 6.37159C114.851 7.03182 114.799 7.80428 114.437 8.57412C114.078 9.34396 113.409 10.1112 112.719 10.6801C112.029 11.249 111.315 11.6196 110.498 11.9014C109.878 12.1154 109.201 12.2798 108.823 12.3816C109.766 12.4129 114.034 11.296 114.851 10.8445C114.992 11.2203 115 12.2224 114.841 12.4546C114.125 12.9583 112.841 13.2532 111.266 13.368C112.151 13.856 112.956 14.464 113.68 15.1895C114.44 15.9463 115.062 16.7866 115.549 17.7078L111.742 19.7851C111.448 19.2501 111.07 18.7464 110.607 18.2689C109.326 17.0006 107.787 16.3638 105.987 16.3638C104.188 16.3638 102.652 17.0032 101.376 18.2793C100.102 19.558 99.4644 21.0977 99.4644 22.901C99.4644 24.7042 100.102 26.2439 101.376 27.5226C102.652 28.7987 104.188 29.4381 105.987 29.4381C107.787 29.4381 109.326 28.7961 110.607 27.5148C111.331 26.7893 111.846 25.9777 112.151 25.08H105.985V20.7219H116.854V22.8983H116.857ZM161.323 12.0058V16.3638H154.802V33.7935H150.453V16.3638H143.93V12.0058H161.323ZM141.891 12.0058V16.3638H131.022V20.7219H141.891V25.08H131.022V33.7935H126.674V12.0084H141.891V12.0058ZM123.192 33.7909H118.843V12.0058H123.192V33.7909ZM104.816 12.0684C105.11 10.44 103.18 7.75208 101.253 7.78862C100.563 7.80167 100.16 8.21921 100.529 8.95512C100.946 9.78237 101.808 10.6018 102.761 11.2124C103.191 11.4865 104.253 12.0554 104.816 12.0684ZM107.56 11.6378C109.698 11.5465 112.742 9.98331 113.32 8.19311C113.607 7.30845 113.203 6.60646 112.69 6.24372C112.177 5.87837 111.555 5.85228 110.823 6.25155C109.005 7.23277 107.636 9.57621 107.56 11.6378Z" fill="#71717A"/>
<path id="Vector_2" fill-rule="evenodd" clip-rule="evenodd" d="M0.085083 12.0058H6.2696L6.19929 23.9657L0.085083 12.0058ZM81.7129 12.0058C83.1503 12.0058 84.5383 12.2824 85.8767 12.8304C87.2126 13.381 88.3896 14.1665 89.4078 15.1895C90.4285 16.2099 91.2097 17.3894 91.7618 18.7282C92.3086 20.0669 92.5846 21.4578 92.5846 22.8983C92.5846 24.3389 92.3086 25.7298 91.7618 27.0685C91.2123 28.4073 90.4285 29.5868 89.4078 30.6072C88.3896 31.6302 87.2126 32.413 85.8767 32.9663C84.5409 33.5143 83.1529 33.7909 81.7129 33.7909C80.2755 33.7909 78.8876 33.5143 77.5517 32.9663C76.2159 32.4157 75.0388 31.6302 74.0207 30.6072C72.9999 29.5868 72.2187 28.4073 71.6666 27.0685C71.1198 25.7298 70.8438 24.3389 70.8438 22.8983C70.8438 21.4578 71.1198 20.0669 71.6666 18.7282C72.2161 17.3894 72.9999 16.2099 74.0207 15.1895C75.0388 14.1665 76.2159 13.3837 77.5517 12.8304C78.8876 12.2824 80.2755 12.0058 81.7129 12.0058ZM81.7129 29.4355C83.5123 29.4355 85.0486 28.7961 86.3246 27.52C87.598 26.2413 88.2359 24.7016 88.2359 22.8983C88.2359 21.0951 87.598 19.5554 86.3246 18.2767C85.0486 17.0006 83.5123 16.3612 81.7129 16.3612C79.9135 16.3612 78.3772 17.0006 77.1012 18.2767C75.8279 19.5554 75.1899 21.0951 75.1899 22.8983C75.1899 24.7016 75.8279 26.2413 77.1012 27.52C78.3772 28.7961 79.9135 29.4355 81.7129 29.4355ZM69.1798 12.0058V16.3638H58.3107V20.7219H69.1798V25.08H58.3107V29.4381H69.1798V33.7961H53.962V12.0084H69.1798V12.0058ZM32.4086 33.7909V12.0058H41.1034C42.5408 12.0058 43.9288 12.2824 45.2646 12.8304C46.6005 13.381 47.7775 14.1665 48.7957 15.1895C49.8164 16.2099 50.5976 17.3894 51.1497 18.7282C51.6965 20.0669 51.9725 21.4578 51.9725 22.8983C51.9725 24.3389 51.6965 25.7298 51.1497 27.0659C50.6002 28.4047 49.8164 29.5868 48.7957 30.6072C47.7775 31.6302 46.6005 32.413 45.2646 32.9663C43.9288 33.5143 42.5408 33.7909 41.1034 33.7909H32.4086ZM36.7547 16.3638V29.4355H41.1034C42.9028 29.4355 44.4391 28.7961 45.7151 27.52C46.9885 26.2413 47.6265 24.7016 47.6265 22.8983C47.6265 21.0951 46.9885 19.5554 45.7151 18.2767C44.4391 17.0006 42.9028 16.3612 41.1034 16.3612H36.7547V16.3638ZM28.9271 33.7909H24.5784V12.0058H28.9271V33.7909ZM8.92569 12.0058H22.3572L19.2662 18.0523L8.92569 12.0058ZM18.0579 20.4166L11.2224 33.7909L7.46744 26.45L18.0579 20.4166Z" fill="#18181B"/>
</g>
</g>
</svg>
